<svg xmlns="http://www.w3.org/2000/svg" xmlns:xlink="http://www.w3.org/1999/xlink" xmlns:lucid="lucid" width="1540" height="638.81"><g transform="translate(200 -200)" lucid:page-tab-id="0_0"><path d="M260 366a6 6 0 0 1 6-6h148a6 6 0 0 1 6 6v108a6 6 0 0 1-6 6H266a6 6 0 0 1-6-6z" stroke="#3a414a" fill="#fbf0ff"/><use xlink:href="#a" transform="matrix(1,0,0,1,272,372) translate(27.969135802469133 38.77777777777778)"/><use xlink:href="#b" transform="matrix(1,0,0,1,272,372) translate(15.037037037037031 65.44444444444446)"/><path d="M790 366a6 6 0 0 1 6-6h168a6 6 0 0 1 6 6v108a6 6 0 0 1-6 6H796a6 6 0 0 1-6-6z" stroke="#3a414a" fill="#fbf0ff"/><use xlink:href="#c" transform="matrix(1,0,0,1,802,372) translate(-1.4753086419753032 39.111111111111114)"/><use xlink:href="#b" transform="matrix(1,0,0,1,802,372) translate(25.03703703703703 65.77777777777777)"/><path d="M668 220c17.67 0 32 17.9 32 40s-14.33 40-32 40h-96c-17.67 0-32-17.9-32-40s14.33-40 32-40z" stroke="#3a414a" fill="#cfe4ff"/><use xlink:href="#d" transform="matrix(1,0,0,1,545,225) translate(14.635802469135811 40.201388888888886)"/><path d="M619.97 301v.08l-.04.2-.03.2-.05.2-.05.2-.07.2-.08.2-.1.2-.1.22-.1.23-.14.23-.14.24-.18.25-.2.27-.23.28-.27.3-.3.3-.37.35-.42.37-.5.4-.6.43-.73.5-.9.52-1.1.6-1.4.7-1.78.8-2.37.93-3.24 1.12-4.6 1.38-6.86 1.76-11.17 2.35-20.94 3.5-182.73 22.53-11.17 2.35-6.87 1.75-4.6 1.38-3.23 1.13-.22.1" stroke="#3a414a" stroke-linejoin="round" fill="none"/><path d="M620.5 301.02l-1-.02v-.5h1z" stroke="#3a414a" stroke-width=".05" fill="#3a414a"/><path d="M341.26 358.52l8.14-12.6 5.85 7.2z" stroke="#3a414a" fill="#3a414a"/><path d="M60 526a6 6 0 0 1 6-6h148a6 6 0 0 1 6 6v68a6 6 0 0 1-6 6H66a6 6 0 0 1-6-6z" stroke="#3a414a" fill="#e3fae3"/><use xlink:href="#e" transform="matrix(1,0,0,1,72,532) translate(-1.04320987654323 19.111111111111114)"/><use xlink:href="#f" transform="matrix(1,0,0,1,72,532) translate(37.84567901234568 45.777777777777786)"/><path d="M460 526a6 6 0 0 1 6-6h148a6 6 0 0 1 6 6v68a6 6 0 0 1-6 6H466a6 6 0 0 1-6-6z" stroke="#3a414a" fill="#e3fae3"/><use xlink:href="#g" transform="matrix(1,0,0,1,472,532) translate(47.660493827160494 17.77777777777778)"/><use xlink:href="#h" transform="matrix(1,0,0,1,472,532) translate(11.888888888888886 44.44444444444444)"/><path d="M420.97 420l6 .14 6.43.4 6.34.67 6.22.93 6.07 1.15 5.9 1.38 5.7 1.6 5.48 1.78 5.27 1.95 5.03 2.1 4.78 2.26 4.55 2.38 4.3 2.48 4.07 2.58 3.84 2.67 3.6 2.73 3.4 2.8 3.17 2.87 3 2.9 2.77 2.97 2.6 3 2.42 3.06 2.24 3.1 2.08 3.14 1.93 3.18 1.77 3.23 1.63 3.28 1.48 3.33 1.35 3.4 1.2 3.44 1.06 3.52.92 3.6.8 3.68.25 1.53" stroke="#3a414a" stroke-linejoin="round" fill="none"/><path d="M421 419.5l-.03 1h-.5v-1z" stroke="#3a414a" stroke-width=".05" fill="#3a414a"/><path d="M539.86 517.92l-5.83-13.8 9.23-.8z" stroke="#3a414a" fill="#3a414a"/><path d="M259.03 420l-6 .14-6.43.4-6.34.67-6.22.93-6.07 1.15-5.9 1.38-5.7 1.6-5.48 1.78-5.27 1.95-5.03 2.1-4.78 2.26-4.55 2.38-4.3 2.48-4.07 2.58-3.84 2.67-3.6 2.73-3.4 2.8-3.17 2.87-3 2.9-2.77 2.97-2.6 3-2.42 3.06-2.24 3.1-2.08 3.14-1.93 3.18-1.77 3.23-1.63 3.28-1.48 3.33-1.35 3.4-1.2 3.44-1.06 3.52-.92 3.6-.8 3.68-.25 1.53" stroke="#3a414a" stroke-linejoin="round" fill="none"/><path d="M259.54 420.5h-.5l-.03-1h.54z" stroke="#3a414a" stroke-width=".05" fill="#3a414a"/><path d="M140.14 517.92l-3.4-14.6 9.23.8z" stroke="#3a414a" fill="#3a414a"/><path d="M62.4 600l-4 6.87-3.95 7.45-3.72 7.83-3.7 8.66-3.97 10.62-17.2 51.48-3.1 7.3-3.03 6.34-3.1 5.85-3.24 5.56-3.5 5.43-1.55 2.22" stroke="#3a414a" stroke-linejoin="round" fill="none"/><path d="M63.05 599.8h.04l-.27.45-.86-.5.26-.46z" stroke="#3a414a" stroke-width=".05" fill="#3a414a"/><path d="M-.67 737.3l5.05-14.12 7.34 5.66z" stroke="#3a414a" fill="#3a414a"/><path d="M-180 626a6 6 0 0 1 6-6H-6a6 6 0 0 1 6 6v65.17a6 6 0 0 1-6 6h-168a6 6 0 0 1-6-6z" stroke="#3a414a" fill="#fff0f0"/><use xlink:href="#i" transform="matrix(1,0,0,1,-168,632) translate(28.092592592592595 17.77777777777778)"/><use xlink:href="#j" transform="matrix(1,0,0,1,-168,632) translate(21.98148148148148 44.44444444444444)"/><use xlink:href="#k" transform="matrix(1,0,0,1,-168,632) translate(78.58641975308643 44.44444444444444)"/><use xlink:href="#l" transform="matrix(1,0,0,1,-168,632) translate(103.27777777777779 44.44444444444444)"/><path d="M-180 743.4a6 6 0 0 1 6-6H-6a6 6 0 0 1 6 6v65.16a6 6 0 0 1-6 6h-168a6 6 0 0 1-6-6z" stroke="#3a414a" fill="#fff0f0"/><use xlink:href="#m" transform="matrix(1,0,0,1,-168,749.3968905618465) translate(9.574074074074062 17.77777777777778)"/><use xlink:href="#n" transform="matrix(1,0,0,1,-168,749.3968905618465) translate(25.006172839506178 44.44444444444444)"/><use xlink:href="#k" transform="matrix(1,0,0,1,-168,749.3968905618465) translate(75.56172839506173 44.44444444444444)"/><use xlink:href="#l" transform="matrix(1,0,0,1,-168,749.3968905618465) translate(100.25308641975309 44.44444444444444)"/><path d="M20 743.4a6 6 0 0 1 6-6h148a6 6 0 0 1 6 6v68a6 6 0 0 1-6 6H26a6 6 0 0 1-6-6z" stroke="#3a414a" fill="#fff0f0"/><use xlink:href="#o" transform="matrix(1,0,0,1,32,749.3968905618465) translate(27.351851851851848 17.77777777777778)"/><use xlink:href="#p" transform="matrix(1,0,0,1,32,749.3968905618465) translate(2.1049382716049365 44.44444444444444)"/><use xlink:href="#k" transform="matrix(1,0,0,1,32,749.3968905618465) translate(78.46296296296296 44.44444444444444)"/><use xlink:href="#l" transform="matrix(1,0,0,1,32,749.3968905618465) translate(103.15432098765432 44.44444444444444)"/><path d="M200 744.8a6 6 0 0 1 6-6h148a6 6 0 0 1 6 6v68a6 6 0 0 1-6 6H206a6 6 0 0 1-6-6z" stroke="#3a414a" fill="#fff0f0"/><use xlink:href="#q" transform="matrix(1,0,0,1,211.99999999999994,750.814213396492) translate(31.02469135802469 17.77777777777778)"/><use xlink:href="#r" transform="matrix(1,0,0,1,211.99999999999994,750.814213396492) translate(4.944444444444457 44.44444444444444)"/><use xlink:href="#k" transform="matrix(1,0,0,1,211.99999999999994,750.814213396492) translate(75.62345679012346 44.44444444444444)"/><use xlink:href="#l" transform="matrix(1,0,0,1,211.99999999999994,750.814213396492) translate(100.31481481481481 44.44444444444444)"/><path d="M59.04 560h-.1l-.58.06-.57.06-.57.1-.56.12-.56.15-.55.17-.57.22-.57.23-.57.3-.6.32-.6.37-.64.43-.66.5-.7.57-.7.67-.78.77-.82.9-.9 1.1-.95 1.3-1.08 1.6-1.2 2-1.36 2.56-1.6 3.37-1.96 4.7-2.65 7.36-6.23 20.73-7.07 23.62-2.64 7.35-1.96 4.7-1.6 3.4-1.36 2.53-1.2 2-.93 1.4" stroke="#3a414a" stroke-linejoin="round" fill="none"/><path d="M59.54 560.5h-.5l-.03-1h.54z" stroke="#3a414a" stroke-width=".05" fill="#3a414a"/><path d="M1.83 663.4l9.43-11.66 5.05 7.77z" stroke="#3a414a" fill="#3a414a"/><path d="M140 600.97l-.14 6.33-.38 6.03-.56 5.4-.73 4.94-.88 4.57-1 4.3-1.16 4.12-1.3 4.02-1.5 4.04-1.77 4.2-2.2 4.63-3.08 5.88-13.72 24.4-2.2 4.65-1.75 4.2-1.5 4.04-1.3 4.02-1.16 4.12-1.02 4.3-.87 4.56-.72 4.94-.2 1.92" stroke="#3a414a" stroke-linejoin="round" fill="none"/><path d="M140.5 601l-1-.03v-.5h1z" stroke="#3a414a" stroke-width=".05" fill="#3a414a"/><path d="M100.1 735.32l-3.87-14.5 9.25.5z" stroke="#3a414a" fill="#3a414a"/><path d="M218.4 599.42l18.58 22.5 8.94 11.85 6.17 8.95 4.74 7.55 3.86 6.75 3.25 6.28 2.8 6 2.42 5.84 2.13 5.82 1.88 5.88 1.66 6.05 1.45 6.3 1.23 6.65 1.02 7.17.78 7.83.07 1.13" stroke="#3a414a" stroke-linejoin="round" fill="none"/><path d="M218.8 599.12l-.77.63-.34-.4.12-.1.64-.54z" stroke="#3a414a" stroke-width=".05" fill="#3a414a"/><path d="M279.94 736.73l-5.15-14.08 9.25-.34z" stroke="#3a414a" fill="#3a414a"/><path d="M400 744.8a6 6 0 0 1 6-6h193.33a6 6 0 0 1 6 6v68a6 6 0 0 1-6 6H406a6 6 0 0 1-6-6z" stroke="#3a414a" fill="#fff0f0"/><use xlink:href="#q" transform="matrix(1,0,0,1,412,750.814213396492) translate(54.02469135802469 17.77777777777778)"/><use xlink:href="#s" transform="matrix(1,0,0,1,412,750.814213396492) translate(1.0308641975308603 44.44444444444444)"/><use xlink:href="#k" transform="matrix(1,0,0,1,412,750.814213396492) translate(125.53703703703704 44.44444444444444)"/><use xlink:href="#l" transform="matrix(1,0,0,1,412,750.814213396492) translate(150.2283950617284 44.44444444444444)"/><path d="M625.33 744.8a6 6 0 0 1 6-6h128a6 6 0 0 1 6 6v66.6a6 6 0 0 1-6 6h-128a6 6 0 0 1-6-6z" stroke="#3a414a" fill="#ffdda6"/><use xlink:href="#t" transform="matrix(1,0,0,1,637.3333333333334,750.8142133964922) translate(25.314814814814817 17.77777777777778)"/><use xlink:href="#u" transform="matrix(1,0,0,1,637.3333333333334,750.8142133964922) translate(9.358024691358032 44.44444444444444)"/><use xlink:href="#v" transform="matrix(1,0,0,1,637.3333333333334,750.8142133964922) translate(15.530864197530871 44.44444444444444)"/><path d="M540 600.97l-.15 6.93-.4 6.5-.6 5.8-.8 5.24-.9 4.85-1.08 4.55-1.23 4.4-1.4 4.3-1.64 4.43-2 4.75-2.72 5.74-14.2 27.6-2 4.77-1.65 4.4-1.4 4.33-1.23 4.4-1.07 4.55-.92 4.85-.77 5.25-.35 3.37" stroke="#3a414a" stroke-linejoin="round" fill="none"/><path d="M540.5 601l-1-.03v-.5h1z" stroke="#3a414a" stroke-width=".05" fill="#3a414a"/><path d="M502.75 736.73l-3.93-14.47 9.26.46z" stroke="#3a414a" fill="#3a414a"/><path d="M540 600.97l.04 1.38.1 1.83.2 1.78.26 1.73.32 1.7.4 1.67.46 1.65.53 1.64.62 1.64.7 1.63.76 1.65.87 1.65.97 1.7 1.08 1.7 1.22 1.75 1.37 1.8 1.53 1.86 1.75 1.94 2 2.04 2.28 2.14 2.66 2.3 3.12 2.47 3.74 2.7 4.58 3.05 5.83 3.52 7.9 4.33 12.67 6.26 52.07 24.08 7.9 4.33 5.83 3.53 4.58 3.04 3.74 2.72 3.1 2.46 2.67 2.3 2.3 2.14 1.98 2.03 1.75 1.94 1.54 1.86 1.37 1.8 1.23 1.76 1.1 1.7.96 1.68.85 1.66.78 1.64.5 1.2" stroke="#3a414a" stroke-linejoin="round" fill="none"/><path d="M540.5 600.97l-1 .02v-.54h1z" stroke="#3a414a" stroke-width=".05" fill="#3a414a"/><path d="M695.02 736.76l-7.27-13.12 9.1-1.77z" stroke="#3a414a" fill="#3a414a"/><path d="M800 746.23a6 6 0 0 1 6-6h148a6 6 0 0 1 6 6v66.58a6 6 0 0 1-6 6H806a6 6 0 0 1-6-6z" stroke="#3a414a" fill="#fff0f0"/><g><use xlink:href="#w" transform="matrix(1,0,0,1,812,752.2315362311377) translate(-3.543209876543216 18.611111111111114)"/><use xlink:href="#x" transform="matrix(1,0,0,1,812,752.2315362311377) translate(19.944444444444443 45.277777777777786)"/><use xlink:href="#k" transform="matrix(1,0,0,1,812,752.2315362311377) translate(60.623456790123456 45.277777777777786)"/><use xlink:href="#l" transform="matrix(1,0,0,1,812,752.2315362311377) translate(85.31481481481481 45.277777777777786)"/></g><path d="M980 743.4a6 6 0 0 1 6-6h148a6 6 0 0 1 6 6v66.58a6 6 0 0 1-6 6H986a6 6 0 0 1-6-6z" stroke="#3a414a" fill="#fff0f0"/><g><use xlink:href="#y" transform="matrix(1,0,0,1,992,749.3968905618465) translate(-4.716049382716051 18.611111111111114)"/><use xlink:href="#z" transform="matrix(1,0,0,1,992,749.3968905618465) translate(8.864197530864203 45.277777777777786)"/><use xlink:href="#k" transform="matrix(1,0,0,1,992,749.3968905618465) translate(71.7037037037037 45.277777777777786)"/><use xlink:href="#l" transform="matrix(1,0,0,1,992,749.3968905618465) translate(96.39506172839506 45.277777777777786)"/></g><path d="M1160 743.4a6 6 0 0 1 6-6h148a6 6 0 0 1 6 6v68a6 6 0 0 1-6 6h-148a6 6 0 0 1-6-6z" stroke="#3a414a" fill="#fff0f0"/><g><use xlink:href="#y" transform="matrix(1,0,0,1,1172,749.3968905618465) translate(-4.716049382716051 19.111111111111114)"/><use xlink:href="#A" transform="matrix(1,0,0,1,1172,749.3968905618465) translate(17.104938271604937 45.777777777777786)"/><use xlink:href="#k" transform="matrix(1,0,0,1,1172,749.3968905618465) translate(63.46296296296296 45.777777777777786)"/><use xlink:href="#l" transform="matrix(1,0,0,1,1172,749.3968905618465) translate(88.15432098765432 45.777777777777786)"/></g><path d="M880 480.97v242.4" stroke="#3a414a" stroke-linejoin="round" fill="none"/><path d="M880.5 480.98h-1v-.52h1z" stroke="#3a414a" stroke-width=".05" fill="#3a414a"/><path d="M880 738.15l-4.64-14.27h9.28z" stroke="#3a414a" fill="#3a414a"/><path d="M880 480.97l.12 5.07.33 5.3.53 5.03.7 4.83.9 4.65 1.05 4.5 1.23 4.4 1.4 4.3 1.58 4.25 1.76 4.2 1.96 4.16 2.2 4.2 2.43 4.2 2.7 4.3 3.05 4.37 3.45 4.54 3.92 4.74 4.54 5.04 5.35 5.46 6.5 6.1 8.35 7.18 12.18 9.63 59.72 44.2 8.34 7.2 6.5 6.1 5.34 5.46 4.54 5.03 3.92 4.73 3.45 4.53 3.05 4.4 2.7 4.27 2.45 4.22 2.2 4.18 1.95 4.18 1.76 4.2 1.58 4.24 1.4 4.3 1.23 4.4 1.05 4.5.9 4.66.64 4.4" stroke="#3a414a" stroke-linejoin="round" fill="none"/><path d="M880.5 480.97l-1 .02v-.54h1z" stroke="#3a414a" stroke-width=".05" fill="#3a414a"/><path d="M1059.9 735.32l-5.54-13.94 9.26-.6z" stroke="#3a414a" fill="#3a414a"/><path d="M880 480.97l.06 2.33.17 2.75.3 2.7.38 2.65.5 2.62.6 2.6.73 2.56.84 2.57.95 2.57 1.1 2.58 1.22 2.6 1.38 2.65 1.55 2.7 1.75 2.74 1.96 2.82 2.22 2.9 2.5 3.03 2.83 3.15 3.23 3.3 3.7 3.48 4.3 3.7 5 3.96 5.93 4.3 7.1 4.7 8.68 5.26 10.92 6 14.34 7.1 20.33 9 36.16 14.2 114.7 42.6 20.33 9 14.34 7.1 10.92 6 8.7 5.25 7.1 4.7 5.9 4.3 5.02 3.97 4.3 3.7 3.7 3.48 3.23 3.3 2.83 3.15 2.5 3.02 2.22 2.9 1.96 2.83 1.75 2.75 1.55 2.7 1.38 2.64 1.23 2.6 1.08 2.58.95 2.57.84 2.57.7 2.5" stroke="#3a414a" stroke-linejoin="round" fill="none"/><path d="M880.5 480.97l-1 .02v-.54h1z" stroke="#3a414a" stroke-width=".05" fill="#3a414a"/><path d="M1239.8 735.33l-6.38-13.58 9.2-1.15z" stroke="#3a414a" fill="#3a414a"/><path d="M620.03 301v.13l.04.2.04.2.06.23.06.2.07.23.07.2.1.23.1.23.13.24.15.25.16.26.2.28.2.28.26.3.28.3.33.35.4.37.44.4.54.4.64.48.77.5.93.57 1.17.64 1.46.73 1.9.82 2.5 1 3.38 1.16 4.8 1.44 7.2 1.84 11.76 2.47 22.58 3.76 157.14 20.4 11.76 2.48 7.2 1.83 4.8 1.46 3.4 1.17 1.12.45" stroke="#3a414a" stroke-linejoin="round" fill="none"/><path d="M620.5 301l-1 .02v-.52h1z" stroke="#3a414a" stroke-width=".05" fill="#3a414a"/><path d="M878.77 358.5l-13.88-5.7 5.98-7.07z" stroke="#3a414a" fill="#3a414a"/><defs><path fill="#3a414a" d="M175 0L67-191c6 58 2 128 3 191H24v-248h59L193-55c-6-58-2-129-3-193h46V0h-61" id="B"/><path fill="#3a414a" d="M110-194c64 0 96 36 96 99 0 64-35 99-97 99-61 0-95-36-95-99 0-62 34-99 96-99zm-1 164c35 0 45-28 45-65 0-40-10-65-43-65-34 0-45 26-45 65 0 36 10 65 43 65" id="C"/><path fill="#3a414a" d="M128 0H69L1-190h53L99-40l48-150h52" id="D"/><path fill="#3a414a" d="M185-48c-13 30-37 53-82 52C43 2 14-33 14-96s30-98 90-98c62 0 83 45 84 108H66c0 31 8 55 39 56 18 0 30-7 34-22zm-45-69c5-46-57-63-70-21-2 6-4 13-4 21h74" id="E"/><path fill="#3a414a" d="M25 0v-261h50V0H25" id="F"/><path fill="#3a414a" d="M115-3C79 11 28 4 28-45v-112H4v-33h27l15-45h31v45h36v33H77v99c-1 23 16 31 38 25v30" id="G"/><path fill="#3a414a" d="M123 10C108 53 80 86 19 72V37c35 8 53-11 59-39L3-190h52l48 148c12-52 28-100 44-148h51" id="H"/><g id="a"><use transform="matrix(0.06172839506172839,0,0,0.06172839506172839,0,0)" xlink:href="#B"/><use transform="matrix(0.06172839506172839,0,0,0.06172839506172839,15.987654320987653,0)" xlink:href="#C"/><use transform="matrix(0.06172839506172839,0,0,0.06172839506172839,29.50617283950617,0)" xlink:href="#D"/><use transform="matrix(0.06172839506172839,0,0,0.06172839506172839,41.85185185185185,0)" xlink:href="#E"/><use transform="matrix(0.06172839506172839,0,0,0.06172839506172839,54.197530864197525,0)" xlink:href="#F"/><use transform="matrix(0.06172839506172839,0,0,0.06172839506172839,60.37037037037037,0)" xlink:href="#G"/><use transform="matrix(0.06172839506172839,0,0,0.06172839506172839,67.71604938271605,0)" xlink:href="#H"/></g><path fill="#3a414a" d="M24 0v-248h52V0H24" id="I"/><path fill="#3a414a" d="M135-194c87-1 58 113 63 194h-50c-7-57 23-157-34-157-59 0-34 97-39 157H25l-1-190h47c2 12-1 28 3 38 12-26 28-41 61-42" id="J"/><path fill="#3a414a" d="M88-194c31-1 46 15 58 34l-1-101h50l1 261h-48c-2-10 0-23-3-31C134-8 116 4 84 4 32 4 16-41 15-95c0-56 19-97 73-99zm17 164c33 0 40-30 41-66 1-37-9-64-41-64s-38 30-39 65c0 43 13 65 39 65" id="K"/><path fill="#3a414a" d="M25-224v-37h50v37H25zM25 0v-190h50V0H25" id="L"/><path fill="#3a414a" d="M190-63c-7 42-38 67-86 67-59 0-84-38-90-98-12-110 154-137 174-36l-49 2c-2-19-15-32-35-32-30 0-35 28-38 64-6 74 65 87 74 30" id="M"/><path fill="#3a414a" d="M133-34C117-15 103 5 69 4 32 3 11-16 11-54c-1-60 55-63 116-61 1-26-3-47-28-47-18 1-26 9-28 27l-52-2c7-38 36-58 82-57s74 22 75 68l1 82c-1 14 12 18 25 15v27c-30 8-71 5-69-32zm-48 3c29 0 43-24 42-57-32 0-66-3-65 30 0 17 8 27 23 27" id="N"/><path fill="#3a414a" d="M135-150c-39-12-60 13-60 57V0H25l-1-190h47c2 13-1 29 3 40 6-28 27-53 61-41v41" id="O"/><path fill="#3a414a" d="M137-138c1-29-70-34-71-4 15 46 118 7 119 86 1 83-164 76-172 9l43-7c4 19 20 25 44 25 33 8 57-30 24-41C81-84 22-81 20-136c-2-80 154-74 161-7" id="P"/><g id="b"><use transform="matrix(0.06172839506172839,0,0,0.06172839506172839,0,0)" xlink:href="#I"/><use transform="matrix(0.06172839506172839,0,0,0.06172839506172839,6.172839506172839,0)" xlink:href="#J"/><use transform="matrix(0.06172839506172839,0,0,0.06172839506172839,19.691358024691358,0)" xlink:href="#K"/><use transform="matrix(0.06172839506172839,0,0,0.06172839506172839,33.20987654320987,0)" xlink:href="#L"/><use transform="matrix(0.06172839506172839,0,0,0.06172839506172839,39.382716049382715,0)" xlink:href="#M"/><use transform="matrix(0.06172839506172839,0,0,0.06172839506172839,51.72839506172839,0)" xlink:href="#N"/><use transform="matrix(0.06172839506172839,0,0,0.06172839506172839,64.07407407407408,0)" xlink:href="#G"/><use transform="matrix(0.06172839506172839,0,0,0.06172839506172839,71.41975308641976,0)" xlink:href="#C"/><use transform="matrix(0.06172839506172839,0,0,0.06172839506172839,84.93827160493828,0)" xlink:href="#O"/><use transform="matrix(0.06172839506172839,0,0,0.06172839506172839,93.58024691358025,0)" xlink:href="#P"/></g><path fill="#3a414a" d="M24-248c120-7 223 5 221 122C244-46 201 0 124 0H24v-248zM76-40c74 7 117-18 117-86 0-67-45-88-117-82v168" id="Q"/><path fill="#3a414a" d="M85 4C-2 5 27-109 22-190h50c7 57-23 150 33 157 60-5 35-97 40-157h50l1 190h-47c-2-12 1-28-3-38-12 25-28 42-61 42" id="R"/><path fill="#3a414a" d="M135-194c53 0 70 44 70 98 0 56-19 98-73 100-31 1-45-17-59-34 3 33 2 69 2 105H25l-1-265h48c2 10 0 23 3 31 11-24 29-35 60-35zM114-30c33 0 39-31 40-66 0-38-9-64-40-64-56 0-55 130 0 130" id="S"/><g id="c"><use transform="matrix(0.06172839506172839,0,0,0.06172839506172839,0,0)" xlink:href="#Q"/><use transform="matrix(0.06172839506172839,0,0,0.06172839506172839,15.987654320987653,0)" xlink:href="#L"/><use transform="matrix(0.06172839506172839,0,0,0.06172839506172839,22.160493827160494,0)" xlink:href="#P"/><use transform="matrix(0.06172839506172839,0,0,0.06172839506172839,34.50617283950617,0)" xlink:href="#O"/><use transform="matrix(0.06172839506172839,0,0,0.06172839506172839,43.148148148148145,0)" xlink:href="#R"/><use transform="matrix(0.06172839506172839,0,0,0.06172839506172839,56.666666666666664,0)" xlink:href="#S"/><use transform="matrix(0.06172839506172839,0,0,0.06172839506172839,70.18518518518518,0)" xlink:href="#G"/><use transform="matrix(0.06172839506172839,0,0,0.06172839506172839,77.53086419753086,0)" xlink:href="#L"/><use transform="matrix(0.06172839506172839,0,0,0.06172839506172839,83.7037037037037,0)" xlink:href="#D"/><use transform="matrix(0.06172839506172839,0,0,0.06172839506172839,96.04938271604938,0)" xlink:href="#E"/><use transform="matrix(0.06172839506172839,0,0,0.06172839506172839,108.39506172839506,0)" xlink:href="#J"/><use transform="matrix(0.06172839506172839,0,0,0.06172839506172839,121.91358024691358,0)" xlink:href="#E"/><use transform="matrix(0.06172839506172839,0,0,0.06172839506172839,134.25925925925927,0)" xlink:href="#P"/><use transform="matrix(0.06172839506172839,0,0,0.06172839506172839,146.60493827160494,0)" xlink:href="#P"/></g><g id="d"><use transform="matrix(0.08641975308641973,0,0,0.08641975308641973,0,0)" xlink:href="#B"/><use transform="matrix(0.08641975308641973,0,0,0.08641975308641973,22.38271604938271,0)" xlink:href="#C"/><use transform="matrix(0.08641975308641973,0,0,0.08641975308641973,41.30864197530863,0)" xlink:href="#D"/><use transform="matrix(0.08641975308641973,0,0,0.08641975308641973,58.59259259259258,0)" xlink:href="#E"/><use transform="matrix(0.08641975308641973,0,0,0.08641975308641973,75.87654320987653,0)" xlink:href="#F"/><use transform="matrix(0.08641975308641973,0,0,0.08641975308641973,84.5185185185185,0)" xlink:href="#S"/><use transform="matrix(0.08641975308641973,0,0,0.08641975308641973,103.44444444444443,0)" xlink:href="#H"/></g><path fill="#3a414a" d="M212-179c-10-28-35-45-73-45-59 0-87 40-87 99 0 60 29 101 89 101 43 0 62-24 78-52l27 14C228-24 195 4 139 4 59 4 22-46 18-125c-6-104 99-153 187-111 19 9 31 26 39 46" id="T"/><path fill="#3a414a" d="M100-194c62-1 85 37 85 99 1 63-27 99-86 99S16-35 15-95c0-66 28-99 85-99zM99-20c44 1 53-31 53-75 0-43-8-75-51-75s-53 32-53 75 10 74 51 75" id="U"/><path fill="#3a414a" d="M96-169c-40 0-48 33-48 73s9 75 48 75c24 0 41-14 43-38l32 2c-6 37-31 61-74 61-59 0-76-41-82-99-10-93 101-131 147-64 4 7 5 14 7 22l-32 3c-4-21-16-35-41-35" id="V"/><path fill="#3a414a" d="M84 4C-5 8 30-112 23-190h32v120c0 31 7 50 39 49 72-2 45-101 50-169h31l1 190h-30c-1-10 1-25-2-33-11 22-28 36-60 37" id="W"/><path fill="#3a414a" d="M114-163C36-179 61-72 57 0H25l-1-190h30c1 12-1 29 2 39 6-27 23-49 58-41v29" id="X"/><path fill="#3a414a" d="M100-194c63 0 86 42 84 106H49c0 40 14 67 53 68 26 1 43-12 49-29l28 8c-11 28-37 45-77 45C44 4 14-33 15-96c1-61 26-98 85-98zm52 81c6-60-76-77-97-28-3 7-6 17-6 28h103" id="Y"/><path fill="#3a414a" d="M117-194c89-4 53 116 60 194h-32v-121c0-31-8-49-39-48C34-167 62-67 57 0H25l-1-190h30c1 10-1 24 2 32 11-22 29-35 61-36" id="Z"/><g id="e"><use transform="matrix(0.06172839506172839,0,0,0.06172839506172839,0,0)" xlink:href="#T"/><use transform="matrix(0.06172839506172839,0,0,0.06172839506172839,15.987654320987653,0)" xlink:href="#U"/><use transform="matrix(0.06172839506172839,0,0,0.06172839506172839,28.333333333333332,0)" xlink:href="#U"/><use transform="matrix(0.06172839506172839,0,0,0.06172839506172839,40.67901234567901,0)" xlink:href="#V"/><use transform="matrix(0.06172839506172839,0,0,0.06172839506172839,51.79012345679013,0)" xlink:href="#V"/><use transform="matrix(0.06172839506172839,0,0,0.06172839506172839,62.90123456790124,0)" xlink:href="#W"/><use transform="matrix(0.06172839506172839,0,0,0.06172839506172839,75.24691358024693,0)" xlink:href="#X"/><use transform="matrix(0.06172839506172839,0,0,0.06172839506172839,82.59259259259261,0)" xlink:href="#X"/><use transform="matrix(0.06172839506172839,0,0,0.06172839506172839,89.9382716049383,0)" xlink:href="#Y"/><use transform="matrix(0.06172839506172839,0,0,0.06172839506172839,102.28395061728398,0)" xlink:href="#Z"/><use transform="matrix(0.06172839506172839,0,0,0.06172839506172839,114.62962962962966,0)" xlink:href="#V"/><use transform="matrix(0.06172839506172839,0,0,0.06172839506172839,125.74074074074078,0)" xlink:href="#Y"/></g><path fill="#3a414a" d="M240 0l2-218c-23 76-54 145-80 218h-23L58-218 59 0H30v-248h44l77 211c21-75 51-140 76-211h43V0h-30" id="aa"/><path fill="#3a414a" d="M141-36C126-15 110 5 73 4 37 3 15-17 15-53c-1-64 63-63 125-63 3-35-9-54-41-54-24 1-41 7-42 31l-33-3c5-37 33-52 76-52 45 0 72 20 72 64v82c-1 20 7 32 28 27v20c-31 9-61-2-59-35zM48-53c0 20 12 33 32 33 41-3 63-29 60-74-43 2-92-5-92 41" id="ab"/><path fill="#3a414a" d="M59-47c-2 24 18 29 38 22v24C64 9 27 4 27-40v-127H5v-23h24l9-43h21v43h35v23H59v120" id="ac"/><path fill="#3a414a" d="M24-231v-30h32v30H24zM24 0v-190h32V0H24" id="ad"/><path fill="#3a414a" d="M141 0L90-78 38 0H4l68-98-65-92h35l48 74 47-74h35l-64 92 68 98h-35" id="ae"/><g id="f"><use transform="matrix(0.06172839506172839,0,0,0.06172839506172839,0,0)" xlink:href="#aa"/><use transform="matrix(0.06172839506172839,0,0,0.06172839506172839,18.456790123456788,0)" xlink:href="#ab"/><use transform="matrix(0.06172839506172839,0,0,0.06172839506172839,30.80246913580247,0)" xlink:href="#ac"/><use transform="matrix(0.06172839506172839,0,0,0.06172839506172839,36.97530864197531,0)" xlink:href="#X"/><use transform="matrix(0.06172839506172839,0,0,0.06172839506172839,44.32098765432099,0)" xlink:href="#ad"/><use transform="matrix(0.06172839506172839,0,0,0.06172839506172839,49.19753086419753,0)" xlink:href="#ae"/></g><path fill="#3a414a" d="M127-220V0H93v-220H8v-28h204v28h-85" id="af"/><g id="g"><use transform="matrix(0.06172839506172839,0,0,0.06172839506172839,0,0)" xlink:href="#af"/><use transform="matrix(0.06172839506172839,0,0,0.06172839506172839,11.049382716049381,0)" xlink:href="#Y"/><use transform="matrix(0.06172839506172839,0,0,0.06172839506172839,23.39506172839506,0)" xlink:href="#ae"/><use transform="matrix(0.06172839506172839,0,0,0.06172839506172839,34.50617283950617,0)" xlink:href="#ac"/></g><path fill="#3a414a" d="M30 0v-248h187v28H63v79h144v27H63v87h162V0H30" id="ag"/><path fill="#3a414a" d="M210-169c-67 3-38 105-44 169h-31v-121c0-29-5-50-35-48C34-165 62-65 56 0H25l-1-190h30c1 10-1 24 2 32 10-44 99-50 107 0 11-21 27-35 58-36 85-2 47 119 55 194h-31v-121c0-29-5-49-35-48" id="ah"/><path fill="#3a414a" d="M115-194c53 0 69 39 70 98 0 66-23 100-70 100C84 3 66-7 56-30L54 0H23l1-261h32v101c10-23 28-34 59-34zm-8 174c40 0 45-34 45-75 0-40-5-75-45-74-42 0-51 32-51 76 0 43 10 73 51 73" id="ai"/><path fill="#3a414a" d="M85-194c31 0 48 13 60 33l-1-100h32l1 261h-30c-2-10 0-23-3-31C134-8 116 4 85 4 32 4 16-35 15-94c0-66 23-100 70-100zm9 24c-40 0-46 34-46 75 0 40 6 74 45 74 42 0 51-32 51-76 0-42-9-74-50-73" id="aj"/><path fill="#3a414a" d="M177-190C167-65 218 103 67 71c-23-6-38-20-44-43l32-5c15 47 100 32 89-28v-30C133-14 115 1 83 1 29 1 15-40 15-95c0-56 16-97 71-98 29-1 48 16 59 35 1-10 0-23 2-32h30zM94-22c36 0 50-32 50-73 0-42-14-75-50-75-39 0-46 34-46 75s6 73 46 73" id="ak"/><g id="h"><use transform="matrix(0.06172839506172839,0,0,0.06172839506172839,0,0)" xlink:href="#ag"/><use transform="matrix(0.06172839506172839,0,0,0.06172839506172839,14.814814814814813,0)" xlink:href="#ah"/><use transform="matrix(0.06172839506172839,0,0,0.06172839506172839,33.2716049382716,0)" xlink:href="#ai"/><use transform="matrix(0.06172839506172839,0,0,0.06172839506172839,45.61728395061728,0)" xlink:href="#Y"/><use transform="matrix(0.06172839506172839,0,0,0.06172839506172839,57.962962962962955,0)" xlink:href="#aj"/><use transform="matrix(0.06172839506172839,0,0,0.06172839506172839,70.30864197530863,0)" xlink:href="#aj"/><use transform="matrix(0.06172839506172839,0,0,0.06172839506172839,82.65432098765432,0)" xlink:href="#ad"/><use transform="matrix(0.06172839506172839,0,0,0.06172839506172839,87.53086419753086,0)" xlink:href="#Z"/><use transform="matrix(0.06172839506172839,0,0,0.06172839506172839,99.87654320987654,0)" xlink:href="#ak"/></g><path fill="#3a414a" d="M205 0l-28-72H64L36 0H1l101-248h38L239 0h-34zm-38-99l-47-123c-12 45-31 82-46 123h93" id="al"/><path fill="#3a414a" d="M179-190L93 31C79 59 56 82 12 73V49c39 6 53-20 64-50L1-190h34L92-34l54-156h33" id="am"/><path fill="#3a414a" d="M115-194c55 1 70 41 70 98S169 2 115 4C84 4 66-9 55-30l1 105H24l-1-265h31l2 30c10-21 28-34 59-34zm-8 174c40 0 45-34 45-75s-6-73-45-74c-42 0-51 32-51 76 0 43 10 73 51 73" id="an"/><path fill="#3a414a" d="M24 0v-261h32V0H24" id="ao"/><g id="i"><use transform="matrix(0.06172839506172839,0,0,0.06172839506172839,0,0)" xlink:href="#al"/><use transform="matrix(0.06172839506172839,0,0,0.06172839506172839,14.814814814814813,0)" xlink:href="#ac"/><use transform="matrix(0.06172839506172839,0,0,0.06172839506172839,20.98765432098765,0)" xlink:href="#am"/><use transform="matrix(0.06172839506172839,0,0,0.06172839506172839,32.09876543209876,0)" xlink:href="#an"/><use transform="matrix(0.06172839506172839,0,0,0.06172839506172839,44.444444444444436,0)" xlink:href="#ad"/><use transform="matrix(0.06172839506172839,0,0,0.06172839506172839,49.32098765432098,0)" xlink:href="#V"/><use transform="matrix(0.06172839506172839,0,0,0.06172839506172839,60.43209876543209,0)" xlink:href="#ab"/><use transform="matrix(0.06172839506172839,0,0,0.06172839506172839,72.77777777777777,0)" xlink:href="#ao"/><use transform="matrix(0.06172839506172839,0,0,0.06172839506172839,77.65432098765432,0)" xlink:href="#ad"/><use transform="matrix(0.06172839506172839,0,0,0.06172839506172839,82.53086419753086,0)" xlink:href="#ac"/><use transform="matrix(0.06172839506172839,0,0,0.06172839506172839,88.7037037037037,0)" xlink:href="#am"/></g><path fill="#3a414a" d="M87 75C49 33 22-17 22-94c0-76 28-126 65-167h31c-38 41-64 92-64 168S80 34 118 75H87" id="ap"/><path fill="#3a414a" d="M232-93c-1 65-40 97-104 97C67 4 28-28 28-90v-158h33c8 89-33 224 67 224 102 0 64-133 71-224h33v155" id="aq"/><path fill="#3a414a" d="M9 0v-24l116-142H16v-24h144v24L44-24h123V0H9" id="ar"/><g id="j"><use transform="matrix(0.06172839506172839,0,0,0.06172839506172839,0,0)" xlink:href="#ap"/><use transform="matrix(0.06172839506172839,0,0,0.06172839506172839,7.345679012345679,0)" xlink:href="#aq"/><use transform="matrix(0.06172839506172839,0,0,0.06172839506172839,23.333333333333332,0)" xlink:href="#ar"/><use transform="matrix(0.06172839506172839,0,0,0.06172839506172839,34.44444444444444,0)" xlink:href="#ar"/><use transform="matrix(0.06172839506172839,0,0,0.06172839506172839,45.55555555555556,0)" xlink:href="#ad"/></g><g id="k"><use transform="matrix(0.06172839506172839,0,0,0.06172839506172839,0,0)" xlink:href="#Y"/><use transform="matrix(0.06172839506172839,0,0,0.06172839506172839,12.345679012345679,0)" xlink:href="#ac"/></g><path fill="#3a414a" d="M33 0v-38h34V0H33" id="as"/><path fill="#3a414a" d="M33-261c38 41 65 92 65 168S71 34 33 75H2C39 34 66-17 66-93S39-220 2-261h31" id="at"/><g id="l"><use transform="matrix(0.06172839506172839,0,0,0.06172839506172839,0,0)" xlink:href="#ab"/><use transform="matrix(0.06172839506172839,0,0,0.06172839506172839,12.345679012345679,0)" xlink:href="#ao"/><use transform="matrix(0.06172839506172839,0,0,0.06172839506172839,17.22222222222222,0)" xlink:href="#as"/><use transform="matrix(0.06172839506172839,0,0,0.06172839506172839,23.39506172839506,0)" xlink:href="#at"/></g><path fill="#3a414a" d="M135-143c-3-34-86-38-87 0 15 53 115 12 119 90S17 21 10-45l28-5c4 36 97 45 98 0-10-56-113-15-118-90-4-57 82-63 122-42 12 7 21 19 24 35" id="au"/><g id="m"><use transform="matrix(0.06172839506172839,0,0,0.06172839506172839,0,0)" xlink:href="#T"/><use transform="matrix(0.06172839506172839,0,0,0.06172839506172839,15.987654320987653,0)" xlink:href="#U"/><use transform="matrix(0.06172839506172839,0,0,0.06172839506172839,28.333333333333332,0)" xlink:href="#ah"/><use transform="matrix(0.06172839506172839,0,0,0.06172839506172839,46.79012345679012,0)" xlink:href="#ah"/><use transform="matrix(0.06172839506172839,0,0,0.06172839506172839,65.24691358024691,0)" xlink:href="#U"/><use transform="matrix(0.06172839506172839,0,0,0.06172839506172839,77.5925925925926,0)" xlink:href="#Z"/><use transform="matrix(0.06172839506172839,0,0,0.06172839506172839,89.93827160493828,0)" xlink:href="#Z"/><use transform="matrix(0.06172839506172839,0,0,0.06172839506172839,102.28395061728396,0)" xlink:href="#Y"/><use transform="matrix(0.06172839506172839,0,0,0.06172839506172839,114.62962962962965,0)" xlink:href="#au"/><use transform="matrix(0.06172839506172839,0,0,0.06172839506172839,125.74074074074076,0)" xlink:href="#au"/></g><path fill="#3a414a" d="M30 0v-248h33v221h125V0H30" id="av"/><g id="n"><use transform="matrix(0.06172839506172839,0,0,0.06172839506172839,0,0)" xlink:href="#ap"/><use transform="matrix(0.06172839506172839,0,0,0.06172839506172839,7.345679012345679,0)" xlink:href="#av"/><use transform="matrix(0.06172839506172839,0,0,0.06172839506172839,19.691358024691358,0)" xlink:href="#Y"/><use transform="matrix(0.06172839506172839,0,0,0.06172839506172839,32.03703703703704,0)" xlink:href="#Y"/></g><path fill="#3a414a" d="M160-131c35 5 61 23 61 61C221 17 115-2 30 0v-248c76 3 177-17 177 60 0 33-19 50-47 57zm-97-11c50-1 110 9 110-42 0-47-63-36-110-37v79zm0 115c55-2 124 14 124-45 0-56-70-42-124-44v89" id="aw"/><g id="o"><use transform="matrix(0.06172839506172839,0,0,0.06172839506172839,0,0)" xlink:href="#aw"/><use transform="matrix(0.06172839506172839,0,0,0.06172839506172839,14.814814814814813,0)" xlink:href="#X"/><use transform="matrix(0.06172839506172839,0,0,0.06172839506172839,22.160493827160494,0)" xlink:href="#ad"/><use transform="matrix(0.06172839506172839,0,0,0.06172839506172839,27.037037037037038,0)" xlink:href="#aj"/><use transform="matrix(0.06172839506172839,0,0,0.06172839506172839,39.382716049382715,0)" xlink:href="#ak"/><use transform="matrix(0.06172839506172839,0,0,0.06172839506172839,51.72839506172839,0)" xlink:href="#ad"/><use transform="matrix(0.06172839506172839,0,0,0.06172839506172839,56.60493827160494,0)" xlink:href="#Z"/><use transform="matrix(0.06172839506172839,0,0,0.06172839506172839,68.95061728395062,0)" xlink:href="#ak"/></g><path fill="#3a414a" d="M63-220v92h138v28H63V0H30v-248h175v28H63" id="ax"/><g id="p"><use transform="matrix(0.06172839506172839,0,0,0.06172839506172839,0,0)" xlink:href="#ap"/><use transform="matrix(0.06172839506172839,0,0,0.06172839506172839,7.345679012345679,0)" xlink:href="#ax"/><use transform="matrix(0.06172839506172839,0,0,0.06172839506172839,20.864197530864196,0)" xlink:href="#U"/><use transform="matrix(0.06172839506172839,0,0,0.06172839506172839,33.20987654320987,0)" xlink:href="#au"/><use transform="matrix(0.06172839506172839,0,0,0.06172839506172839,44.32098765432099,0)" xlink:href="#ac"/><use transform="matrix(0.06172839506172839,0,0,0.06172839506172839,50.49382716049383,0)" xlink:href="#Y"/><use transform="matrix(0.06172839506172839,0,0,0.06172839506172839,62.839506172839506,0)" xlink:href="#X"/></g><path fill="#3a414a" d="M190 0L58-211 59 0H30v-248h39L202-35l-2-213h31V0h-41" id="ay"/><path fill="#3a414a" d="M108 0H70L1-190h34L89-25l56-165h34" id="az"/><g id="q"><use transform="matrix(0.06172839506172839,0,0,0.06172839506172839,0,0)" xlink:href="#ay"/><use transform="matrix(0.06172839506172839,0,0,0.06172839506172839,15.987654320987653,0)" xlink:href="#U"/><use transform="matrix(0.06172839506172839,0,0,0.06172839506172839,28.333333333333332,0)" xlink:href="#az"/><use transform="matrix(0.06172839506172839,0,0,0.06172839506172839,39.44444444444444,0)" xlink:href="#Y"/><use transform="matrix(0.06172839506172839,0,0,0.06172839506172839,51.79012345679012,0)" xlink:href="#ao"/><use transform="matrix(0.06172839506172839,0,0,0.06172839506172839,56.666666666666664,0)" xlink:href="#ac"/><use transform="matrix(0.06172839506172839,0,0,0.06172839506172839,62.839506172839506,0)" xlink:href="#am"/></g><path fill="#3a414a" d="M266 0h-40l-56-210L115 0H75L2-248h35L96-30l15-64 43-154h32l59 218 59-218h35" id="aA"/><g id="r"><use transform="matrix(0.06172839506172839,0,0,0.06172839506172839,0,0)" xlink:href="#ap"/><use transform="matrix(0.06172839506172839,0,0,0.06172839506172839,7.345679012345679,0)" xlink:href="#aA"/><use transform="matrix(0.06172839506172839,0,0,0.06172839506172839,27.469135802469133,0)" xlink:href="#ab"/><use transform="matrix(0.06172839506172839,0,0,0.06172839506172839,39.81481481481481,0)" xlink:href="#Z"/><use transform="matrix(0.06172839506172839,0,0,0.06172839506172839,52.16049382716049,0)" xlink:href="#ak"/></g><path fill="#3a414a" d="M185-189c-5-48-123-54-124 2 14 75 158 14 163 119 3 78-121 87-175 55-17-10-28-26-33-46l33-7c5 56 141 63 141-1 0-78-155-14-162-118-5-82 145-84 179-34 5 7 8 16 11 25" id="aB"/><path fill="#3a414a" d="M106-169C34-169 62-67 57 0H25v-261h32l-1 103c12-21 28-36 61-36 89 0 53 116 60 194h-32v-121c2-32-8-49-39-48" id="aC"/><g id="s"><use transform="matrix(0.06172839506172839,0,0,0.06172839506172839,0,0)" xlink:href="#ap"/><use transform="matrix(0.06172839506172839,0,0,0.06172839506172839,7.345679012345679,0)" xlink:href="#aB"/><use transform="matrix(0.06172839506172839,0,0,0.06172839506172839,22.160493827160494,0)" xlink:href="#aC"/><use transform="matrix(0.06172839506172839,0,0,0.06172839506172839,34.50617283950617,0)" xlink:href="#ad"/><use transform="matrix(0.06172839506172839,0,0,0.06172839506172839,39.382716049382715,0)" xlink:href="#ai"/><use transform="matrix(0.06172839506172839,0,0,0.06172839506172839,51.72839506172839,0)" xlink:href="#ab"/><use transform="matrix(0.06172839506172839,0,0,0.06172839506172839,64.07407407407408,0)" xlink:href="#am"/><use transform="matrix(0.06172839506172839,0,0,0.06172839506172839,75.18518518518519,0)" xlink:href="#ab"/><use transform="matrix(0.06172839506172839,0,0,0.06172839506172839,87.53086419753087,0)" xlink:href="#ah"/><use transform="matrix(0.06172839506172839,0,0,0.06172839506172839,105.98765432098766,0)" xlink:href="#ab"/></g><g id="t"><use transform="matrix(0.06172839506172839,0,0,0.06172839506172839,0,0)" xlink:href="#al"/><use transform="matrix(0.06172839506172839,0,0,0.06172839506172839,14.814814814814813,0)" xlink:href="#W"/><use transform="matrix(0.06172839506172839,0,0,0.06172839506172839,27.160493827160494,0)" xlink:href="#ac"/><use transform="matrix(0.06172839506172839,0,0,0.06172839506172839,33.333333333333336,0)" xlink:href="#aC"/><use transform="matrix(0.06172839506172839,0,0,0.06172839506172839,45.67901234567901,0)" xlink:href="#U"/><use transform="matrix(0.06172839506172839,0,0,0.06172839506172839,58.02469135802469,0)" xlink:href="#X"/></g><path fill="#3a414a" d="M30-248c87 1 191-15 191 75 0 78-77 80-158 76V0H30v-248zm33 125c57 0 124 11 124-50 0-59-68-47-124-48v98" id="aD"/><g id="v"><use transform="matrix(0.06172839506172839,0,0,0.06172839506172839,0,0)" xlink:href="#aD"/><use transform="matrix(0.06172839506172839,0,0,0.06172839506172839,14.814814814814813,0)" xlink:href="#X"/><use transform="matrix(0.06172839506172839,0,0,0.06172839506172839,22.160493827160494,0)" xlink:href="#U"/><use transform="matrix(0.06172839506172839,0,0,0.06172839506172839,34.50617283950617,0)" xlink:href="#ae"/><use transform="matrix(0.06172839506172839,0,0,0.06172839506172839,45.61728395061728,0)" xlink:href="#ad"/><use transform="matrix(0.06172839506172839,0,0,0.06172839506172839,50.49382716049382,0)" xlink:href="#ah"/><use transform="matrix(0.06172839506172839,0,0,0.06172839506172839,68.9506172839506,0)" xlink:href="#ad"/><use transform="matrix(0.06172839506172839,0,0,0.06172839506172839,73.82716049382715,0)" xlink:href="#ac"/><use transform="matrix(0.06172839506172839,0,0,0.06172839506172839,79.99999999999999,0)" xlink:href="#am"/></g><path fill="#3a414a" d="M0 4l72-265h28L28 4H0" id="aE"/><path fill="#3a414a" d="M30-248c118-7 216 8 213 122C240-48 200 0 122 0H30v-248zM63-27c89 8 146-16 146-99s-60-101-146-95v194" id="aF"/><g id="w"><use transform="matrix(0.06172839506172839,0,0,0.06172839506172839,0,0)" xlink:href="#aw"/><use transform="matrix(0.06172839506172839,0,0,0.06172839506172839,14.814814814814813,0)" xlink:href="#X"/><use transform="matrix(0.06172839506172839,0,0,0.06172839506172839,22.160493827160494,0)" xlink:href="#Y"/><use transform="matrix(0.06172839506172839,0,0,0.06172839506172839,34.50617283950617,0)" xlink:href="#ab"/><use transform="matrix(0.06172839506172839,0,0,0.06172839506172839,46.85185185185185,0)" xlink:href="#aj"/><use transform="matrix(0.06172839506172839,0,0,0.06172839506172839,59.197530864197525,0)" xlink:href="#ac"/><use transform="matrix(0.06172839506172839,0,0,0.06172839506172839,65.37037037037037,0)" xlink:href="#aC"/><use transform="matrix(0.06172839506172839,0,0,0.06172839506172839,77.71604938271605,0)" xlink:href="#aE"/><use transform="matrix(0.06172839506172839,0,0,0.06172839506172839,83.88888888888889,0)" xlink:href="#aF"/><use transform="matrix(0.06172839506172839,0,0,0.06172839506172839,99.87654320987654,0)" xlink:href="#Y"/><use transform="matrix(0.06172839506172839,0,0,0.06172839506172839,112.22222222222223,0)" xlink:href="#an"/><use transform="matrix(0.06172839506172839,0,0,0.06172839506172839,124.56790123456791,0)" xlink:href="#ac"/><use transform="matrix(0.06172839506172839,0,0,0.06172839506172839,130.74074074074076,0)" xlink:href="#aC"/></g><g id="x"><use transform="matrix(0.06172839506172839,0,0,0.06172839506172839,0,0)" xlink:href="#ap"/><use transform="matrix(0.06172839506172839,0,0,0.06172839506172839,7.345679012345679,0)" xlink:href="#aw"/><use transform="matrix(0.06172839506172839,0,0,0.06172839506172839,22.160493827160494,0)" xlink:href="#W"/></g><g id="y"><use transform="matrix(0.06172839506172839,0,0,0.06172839506172839,0,0)" xlink:href="#aF"/><use transform="matrix(0.06172839506172839,0,0,0.06172839506172839,15.987654320987653,0)" xlink:href="#ad"/><use transform="matrix(0.06172839506172839,0,0,0.06172839506172839,20.864197530864196,0)" xlink:href="#au"/><use transform="matrix(0.06172839506172839,0,0,0.06172839506172839,31.975308641975307,0)" xlink:href="#X"/><use transform="matrix(0.06172839506172839,0,0,0.06172839506172839,39.32098765432099,0)" xlink:href="#W"/><use transform="matrix(0.06172839506172839,0,0,0.06172839506172839,51.666666666666664,0)" xlink:href="#an"/><use transform="matrix(0.06172839506172839,0,0,0.06172839506172839,64.01234567901234,0)" xlink:href="#ac"/><use transform="matrix(0.06172839506172839,0,0,0.06172839506172839,70.18518518518518,0)" xlink:href="#ad"/><use transform="matrix(0.06172839506172839,0,0,0.06172839506172839,75.06172839506172,0)" xlink:href="#az"/><use transform="matrix(0.06172839506172839,0,0,0.06172839506172839,86.17283950617283,0)" xlink:href="#Y"/><use transform="matrix(0.06172839506172839,0,0,0.06172839506172839,98.51851851851852,0)" xlink:href="#Z"/><use transform="matrix(0.06172839506172839,0,0,0.06172839506172839,110.8641975308642,0)" xlink:href="#Y"/><use transform="matrix(0.06172839506172839,0,0,0.06172839506172839,123.20987654320989,0)" xlink:href="#au"/><use transform="matrix(0.06172839506172839,0,0,0.06172839506172839,134.320987654321,0)" xlink:href="#au"/></g><path fill="#3a414a" d="M143 0L79-87 56-68V0H24v-261h32v163l83-92h37l-77 82L181 0h-38" id="aG"/><g id="z"><use transform="matrix(0.06172839506172839,0,0,0.06172839506172839,0,0)" xlink:href="#ap"/><use transform="matrix(0.06172839506172839,0,0,0.06172839506172839,7.345679012345679,0)" xlink:href="#ax"/><use transform="matrix(0.06172839506172839,0,0,0.06172839506172839,20.864197530864196,0)" xlink:href="#W"/><use transform="matrix(0.06172839506172839,0,0,0.06172839506172839,33.20987654320987,0)" xlink:href="#Z"/><use transform="matrix(0.06172839506172839,0,0,0.06172839506172839,45.55555555555555,0)" xlink:href="#aG"/></g><g id="A"><use transform="matrix(0.06172839506172839,0,0,0.06172839506172839,0,0)" xlink:href="#ap"/><use transform="matrix(0.06172839506172839,0,0,0.06172839506172839,7.345679012345679,0)" xlink:href="#aA"/><use transform="matrix(0.06172839506172839,0,0,0.06172839506172839,27.839506172839503,0)" xlink:href="#W"/></g></defs></g></svg>